<svg class="svg-icon" style="width: 30em;height: 30em;vertical-align: middle;fill: currentColor;overflow: hidden;" viewBox="0 0 1024 1024" version="1.1" xmlns="http://www.w3.org/2000/svg">
<path d="M680.7 659.1c-62 53.5-118.3 96.6-168.7 131.4-47.3 32.6-89.5 57.9-126.5 77.5-120.5 64-184 67.2-184 67.2l-20-96.2-96.2-20s8-160 254.3-453.6c7.1-8.4 14.3-16.9 21.8-25.6 39.1-45.3 78.8-82.5 117.8-112.8C707 49.6 917.8 102.5 917.8 102.5s72.6 289.2-237.1 556.6z" fill="#60B0A7" />
<path d="M511.9 790.6c-47.3 32.6-89.5 57.9-126.5 77.5 8-65.9-3.3-132.9-38-195.2-50.9-91.6-31.2-220.7-8.1-307.6 7.1-8.4 14.3-16.9 21.8-25.6 39.1-45.3 78.8-82.5 117.8-112.8-22.9 86.8-42 215 8.5 305.9 45.8 82.3 50.9 172.6 24.5 257.8z" fill="#FBC9AE" />
<path d="M244.3 776c-6.7-6.7-6.7-17.8 0-24.4l649-648.9c6.7-6.7 17.8-6.7 24.4 0 6.7 6.7 6.7 17.8 0 24.4L268.7 776c-6.7 6.8-17.7 6.8-24.4 0z" fill="#01747E" /></svg>